<?xml version="1.0" encoding="UTF-8"?>
<svg height="170px" viewBox="0 0 1024 684" version="1.1" xmlns="http://www.w3.org/2000/svg" xmlns:xlink="http://www.w3.org/1999/xlink">
    <!-- Generator: Sketch 52.6 (67491) - http://www.bohemiancoding.com/sketch -->
    <title>Appstore Icon</title>
    <desc>Created with Sketch.</desc>
    <g id="Appstore-Icon" stroke="none" stroke-width="1" fill="none" fill-rule="evenodd">
        <g id="logo" transform="translate(8.000000, 5.000000)" fill="#FA5D54">
            <path d="M124.906625,190.949878 L124.906625,215.934597 L158,215.934597 L158,0 L124.647202,0 L124.647202,81.3835575 C113.266419,65.0268949 95.8737864,56.5209861 73.506996,56.5209861 C38.0562536,56.5209861 0,82.0165037 0,138.037795 C0,177.824572 21.972016,218 71.0255568,218 C93.256996,218 112.612222,208.083843 124.906625,190.949878 Z M33.8716448,137.515892 C33.8716448,105.32447 51.9184752,84.5927058 79.7782696,84.5927058 C109.205882,84.5927058 126.733866,104.169621 126.733866,137.005094 C126.733866,162.367359 114.439463,189.417482 79.7782696,189.417482 C51.0048544,189.406377 33.8716448,170.095966 33.8716448,137.515892 Z" id="Shape" fill-rule="nonzero"></path>
            <rect id="Rectangle" x="180" y="60" width="38" height="158"></rect>
            <path d="M203.5,45 C216.918182,45 226,36.0047034 226,22.6352234 C226,9.27750196 216.777922,0 203.5,0 C190.081818,0 181,9.13639927 181,22.6352234 C181,36.2751502 189.812987,45 203.5,45 Z" id="Path"></path>
            <path d="M280.622959,137.576159 C280.622959,103.966539 293.237024,83.8260718 314.135936,83.8260718 C324.068962,83.8260718 331.848368,86.0920181 338.858623,91.0264901 L342.429678,93.5569885 L353,62.4778669 L350.703537,61.0055769 C345.220594,57.2673405 335.540289,53 320.761616,53 C302.291021,53 288.775952,61.5346811 280.238384,78.4775183 L280.238384,55.1394214 L248,55.1394214 L248,218 L280.491105,218 L280.622959,137.576159 Z" id="Path"></path>
            <path d="M428.857701,218 C447.146061,218 461.993923,214.220344 473.264125,206.78477 C484.922954,199.349196 493.678507,190.867467 500.033712,180.957118 L502.022571,177.829902 L473.389857,161.912599 L471.663894,164.916076 C461.982493,181.350832 448.334804,189.045132 428.583376,189.045132 C400.087825,189.045132 382.725313,173.78027 379.410548,145.871557 L504,145.871557 L504,134.262612 C504,84.9583447 474.178543,53 428.046155,53 C380.462128,53 346,88.2205481 346,136.748636 C346.148593,186.952822 377.821746,218 428.857701,218 Z M428.057585,81.81988 C452.575418,81.81988 467.94907,96.4323016 470.47515,122.259954 L380.210663,122.259954 C384.577009,96.8147668 402.213846,81.81988 428.057585,81.81988 Z" id="Shape" fill-rule="nonzero"></path>
            <path d="M599.447718,218 C638.416888,218 665.543155,197.227145 676.080273,159.342596 L677,155.816618 L643.163133,147.976104 L642.368308,151.378166 C636.441179,176.983751 623.281135,188.474159 599.311462,188.474159 C558.888897,188.474159 552.836867,155.298423 552.836867,135.573223 C552.836867,102.397488 570.743155,81.8837305 599.583974,81.8837305 C623.019978,81.8837305 637.111103,94.6808903 641.459935,119.892196 L642.118505,123.418174 L676.216529,116.231037 L675.421703,112.828975 C669.233417,85.5223595 651.065972,53 600.106288,53 C552.314553,53 519,86.964293 519,135.685874 C519,185.736738 550.6,218 599.447718,218 Z" id="Path"></path>
            <path d="M712.484476,166.190027 C712.484476,201.588901 727.641335,218 760.351258,218 C770.715706,218 780.289062,216.075788 788.005073,212.614417 L790,211.718663 L790,183.629585 L785.219054,185.299447 C778.443182,187.732359 773.387074,189.147872 766.209923,189.147872 C753.185572,189.147872 745.068283,184.790747 745.068283,163.37006 L745.068283,87.065084 L790,87.065084 L790,58.8543601 L745.068283,58.8543601 L745.068283,0 L712.759639,18.8550703 L712.759639,58.8654188 L677,58.8654188 L677,87.0761426 L712.495942,87.0761426 L712.495942,166.190027 L712.484476,166.190027 Z" id="Path"></path>
            <rect id="Rectangle" x="797" y="0" width="38" height="218"></rect>
            <polygon id="Path" points="885.577041 278 920.493588 278 1015 60 980.340932 60 937.498473 163.459153 932.438429 177.814729 927.635864 163.594158 884.535925 60 850 60 914.784246 212.769882"></polygon>
            <path d="M444,463.399536 L444,355.958723 C444,321.623593 420.2346,301 380.584086,301 C345.530404,301 318.741964,318.23511 305.087332,349.564508 L303.638084,352.952992 L334.094933,363.399877 L335.272447,360.394146 C343.933967,338.723613 357.464054,329.064747 379.123515,329.064747 C399.74133,329.064747 411.550435,336.899911 411.550435,350.34127 C411.550435,360.911987 402.096358,364.705738 371.639509,371.493962 C346.82114,376.582316 333.698654,380.758818 323.191607,386.894112 C307.963183,395.900048 301,408.046804 301,425.011735 C301,450.723682 320.304434,466 352.595487,466 C377.413856,466 399.209184,453.988333 411.810847,434.535512 L411.810847,463.25319 L444,463.399536 Z M361.936342,438.99345 C351.825574,438.99345 334.762945,436.64065 334.762945,420.981579 C334.762945,405.187419 348.021298,399.446135 375.862708,393.310841 C392.800792,389.528348 405.142043,385.869687 412.8869,380.387323 L412.886461,385.351846 C413.011006,417.446749 386.618844,438.99345 361.936342,438.99345 Z" id="Shape" fill-rule="nonzero"></path>
            <path d="M459,303.338766 L459,303.473695 L459,519 L492.352798,519 L492.352798,438.425005 C504.252427,455.504745 522.694032,464.758614 545.320246,464.758614 C581.030411,464.758614 617,439.200846 617,381.968537 C617,322.251289 579.462593,301 547.282838,301 C524.656625,301 504.906625,311.164638 492.352798,328.772849 L492.352798,303.338766 L459,303.338766 Z M537.481154,329.672375 C566.254569,329.672375 583.387778,349.360739 583.387778,382.47452 C583.387778,415.85816 566.513992,435.805137 538.259423,435.805137 C508.177613,435.805137 490.130782,416.116773 490.130782,383.002992 C490.130782,350.665051 508.696459,329.672375 537.481154,329.672375 Z" id="Shape" fill-rule="nonzero"></path>
            <path d="M632,303.338766 L632,303.473695 L632,519 L665.352798,519 L665.352798,438.425005 C677.252427,455.504745 695.694032,464.758614 718.320246,464.758614 C754.030411,464.758614 790,439.200846 790,381.968537 C790,322.251289 752.462593,301 720.282838,301 C697.656625,301 677.906625,311.164638 665.352798,328.772849 L665.352798,303.338766 L632,303.338766 Z M710.481154,329.672375 C739.254569,329.672375 756.387778,349.360739 756.387778,382.47452 C756.387778,415.85816 739.513992,435.805137 711.259423,435.805137 C681.177613,435.805137 663.130782,416.116773 663.130782,383.002992 C663.266134,350.665051 681.84309,329.672375 710.481154,329.672375 Z" id="Shape" fill-rule="nonzero"></path>
            <rect id="Rectangle" x="797" y="248" width="38" height="218"></rect>
            <polygon id="Path" points="937.498473 406.157784 932.438429 420.749056 927.635864 406.295006 884.535925 301 850 301 914.784246 456.278116 888.039894 519 922.833299 519 1015 301 980.464075 301"></polygon>
            <path d="M841.694929,503.492489 L842,502.917963 L841.242971,502.774332 L841.491548,502.056175 L841.491548,501.967787 C841.46895,501.492698 841.46895,501.061804 841.46895,500.675105 C841.46895,499.073063 841.46895,497.912963 839.469037,497.183758 C837.819392,496.609233 834.85907,497.227952 832.249015,497.78038 C831.119121,498.0124 830.05702,498.233372 829.299991,498.310712 C822.373741,498.962577 815.650872,499.459762 808.747219,499.846462 C795.900324,500.454133 782.669265,500.288405 768.319611,499.338228 C767.720767,499.294034 767.05413,499.227743 766.364894,499.161451 C762.952615,498.841043 758.704213,498.432246 755.743891,499.769122 C753.427608,500.907125 753.054743,502.730138 752.625383,504.840414 L752.467198,505.602765 C752.184725,506.906496 751.823158,508.221275 751.438994,509.635491 C750.625471,512.585458 749.800648,515.634862 749.710257,518.551684 C749.529474,518.551684 749.382587,518.551684 749.371288,518.562732 L747.22449,516.441408 L748.580363,519.11516 C748.795042,519.546055 749.574669,519.689686 750.196111,519.689686 L750.196111,519.899609 C750.467286,519.899609 750.727161,519.943803 750.964439,519.976949 C751.371201,520.032191 751.81186,520.098483 752.184725,519.954851 C752.309013,520.385745 752.749672,520.496231 753.145134,520.540425 L753.224227,520.551474 L753.30332,520.540425 C753.495402,520.496231 753.732679,520.42994 753.981256,520.3526 C754.36542,520.231066 754.828677,520.087434 755.212841,520.087434 L755.212841,520.175823 L755.574407,520.27526 C756.693002,520.562523 757.56302,520.341551 758.320049,520.142677 C758.783306,520.021143 759.201366,519.910657 759.664623,519.910657 C759.675922,519.910657 759.675922,519.910657 759.687221,519.910657 L760.240869,520.131628 C760.636332,520.286308 761.122186,520.264211 761.630639,520.253163 C762.15039,520.231066 762.737935,520.220017 763.21249,520.374697 C763.235088,520.385745 763.257686,520.385745 763.280284,520.396794 L763.461067,519.899609 L763.472366,519.899609 C764.093807,520.021143 764.624858,520.032191 765.099413,520.04324 C765.66436,520.054289 766.161514,520.065337 766.669966,520.253163 L766.884646,520.330503 L767.878952,519.778074 C770.737584,519.844366 778.002803,519.612346 784.420601,519.413472 C788.284838,519.291938 791.956994,519.181452 794.205483,519.148306 L794.035999,519.314035 L795.290181,519.26984 C797.211001,519.203549 799.764562,519.170403 802.476307,519.137258 L805.063765,519.104112 C805.063765,519.11516 805.063765,519.11516 805.075064,519.126209 C803.154244,521.236485 800.871858,523.722412 798.600771,525.7443 C796.521766,527.655702 796.273189,527.677799 796.137602,527.688847 C795.685644,527.733042 795.357975,527.766187 792.442848,530.473086 C779.166594,542.516022 764.38758,554.194356 747.292283,566.182049 C732.106508,576.700284 715.802137,586.610847 698.898923,595.626477 L698.729439,595.361311 C697.802925,595.858496 696.887711,596.36673 695.983796,596.852867 C694.34545,597.747801 692.741,598.631686 691.136551,599.44928 C688.69598,600.708817 686.176316,602.001499 683.690549,603.161598 C681.690637,604.089678 679.747219,605.028806 677.803801,605.967934 C674.956468,607.349005 672.007445,608.774269 669.058422,610.055903 C666.143295,611.094468 665.408864,611.193905 664.572742,611.31544 L664.606639,611.768431 L664.391959,611.425925 C664.324166,611.459071 664.177279,611.525362 663.973899,611.613751 C663.646229,611.757382 663.160375,611.967305 662.606727,612.243519 C661.962687,612.530782 661.216957,612.840142 660.346939,613.204744 C659.273539,613.646687 658.030656,614.165969 656.595691,614.806786 L655.081633,615.436554 C652.900937,616.342537 650.437768,617.359005 647.692126,618.386521 L646.923798,618.684833 C643.816589,619.900175 640.60769,621.159711 637.229307,622.220374 C630.642025,624.56267 623.930455,626.695043 618.529561,628.40757 L617.0494,628.882659 C612.620215,630.418409 609.400018,631.390683 607.840764,631.854723 C606.982044,632.119888 606.744767,632.18618 606.631777,632.241423 L606.49619,632.307714 L605.999037,633.158454 C600.530349,634.57267 599.682929,634.594767 598.971096,634.594767 C598.959797,634.594767 598.937199,634.594767 598.9259,634.594767 C598.134974,634.605816 597.366646,634.594767 592.078742,635.964789 C590.3952,636.837626 586.576158,637.854094 581.604625,638.737979 C577.412718,639.478233 573.085224,640.251633 571.153105,640.903498 C570.893229,640.914547 570.452571,640.969789 569.695542,641.069226 C569.017605,641.157615 567.955505,641.301246 567.232373,641.367538 L568.057195,640.152195 L566.09118,641.378586 C565.198564,641.931015 563.119559,642.240374 560.904966,642.571831 C559.808969,642.73756 558.679075,642.903288 557.549181,643.12426 C557.266708,643.212648 556.859946,643.345231 556.859946,643.720882 L551.899711,644.637913 C551.741526,644.648962 551.583341,644.66001 551.436454,644.671059 L551.357362,644.11863 C550.589034,644.207019 549.651222,644.339602 548.589121,644.494282 C548.012876,644.58267 547.402733,644.671059 546.758693,644.759447 C545.662696,644.914127 544.487606,645.024613 543.244723,645.135099 C542.4199,645.212438 541.549882,645.289778 540.600771,645.400264 C536.804327,645.930595 532.51073,646.284149 527.550495,646.681898 L524.522379,646.936015 C514.714899,647.654171 499.596917,648.482814 483.190856,648.339183 C479.620391,648.217648 475.914338,648.085066 472.411667,648.085066 C471.496453,648.085066 470.626434,648.05192 469.745117,648.018774 C468.852501,647.985628 467.959884,647.952483 467.04467,647.952483 C465.824385,647.952483 464.649295,647.830949 463.508102,647.720463 C462.954454,647.66522 462.389507,647.609977 461.835859,647.565783 C458.299291,647.311666 454.89831,647.057549 451.621617,646.792383 C450.084961,646.681898 448.661295,646.560363 447.237628,646.449878 L446.819567,646.416732 C446.028641,646.284149 445.237716,646.195761 444.435491,646.096324 C443.655864,645.996887 442.876237,645.908498 442.085311,645.775915 L440.910222,645.621235 C438.288867,645.289778 435.825699,644.96937 433.452921,644.748399 C432.356924,644.593719 431.306122,644.461136 430.289218,644.339602 C428.741263,644.140728 427.2837,643.963951 425.871332,643.731931 L425.36288,643.643542 C421.080582,642.925385 417.374529,642.306666 414.719278,641.931015 L414.515897,642.726511 C414.086538,642.571831 413.589384,642.4282 413.013138,642.262471 L412.775861,642.19618 C411.883244,642.019403 410.855041,641.787383 409.759044,641.533266 L408.211089,641.179712 C404.821407,640.384215 401.431725,639.511379 399.544802,638.528056 L399.397915,638.450716 L397.669178,638.715882 L395.08172,637.710463 C392.177893,637.213277 389.86161,636.594557 387.929491,636.053178 C386.630113,635.688575 385.579312,635.445507 384.720592,635.257681 C384.359026,635.180341 384.020058,635.103001 383.726285,635.025661 C382.280021,634.65001 381.54559,634.484281 381.048437,634.362747 L380.573881,634.252262 C380.189717,634.163873 379.873347,634.064436 379.025926,633.810319 L377.986424,633.500959 C377.647456,633.390473 377.251993,633.279988 376.777437,633.158454 C376.133398,632.981676 375.353771,632.771754 374.393361,632.462394 C372.834107,631.95416 370.87939,631.313343 368.303232,630.429458 C365.376807,629.435087 362.653762,628.661687 360.179294,627.998773 C359.218884,627.678365 358.235876,627.446345 357.377157,627.247471 L356.733117,627.092791 C355.8518,626.882868 354.868792,626.540363 353.761496,626.076323 L352.936673,625.800109 C349.705176,624.706301 346.914338,623.767173 344.078304,622.573928 L343.931418,622.905385 C343.502058,622.584976 342.575545,622.253519 340.60953,621.579557 L339.490935,621.203906 C337.219848,620.419458 335.095647,619.425087 334.5307,618.972095 L333.400806,618.47491 C325.672331,615.171389 324.180871,614.685252 323.740212,614.906223 C323.570728,614.817835 323.401244,614.718398 323.209162,614.618961 C322.293948,614.110727 320.892879,613.348376 319.853377,612.762802 L320.03416,612.398199 C319.039853,611.912062 318.068144,611.425925 317.141631,610.950837 C315.424192,610.078 313.785846,609.260406 312.407375,608.663784 L312.316983,608.840561 C309.108084,607.282713 306.59972,606.00108 304.339932,604.708397 C300.712972,602.642316 297.95603,601.217051 295.119996,599.946466 L294.950512,600.244777 C294.238679,599.858077 293.560743,599.471377 292.905404,599.117823 L291.77551,598.488055 L292.148375,597.780947 C290.623018,596.952304 289.267145,596.134711 287.956468,595.328165 C287.244635,594.897271 286.5554,594.477426 285.866164,594.068629 C283.922747,592.930627 282.250504,591.914159 280.499168,590.864545 C278.826925,589.859125 277.098187,588.82056 275.392047,587.914578 C274.872296,587.605218 274.352544,587.28481 273.832793,586.953353 C272.623807,586.20205 271.380923,585.417602 269.991154,584.699445 L269.878164,584.876222 C267.494088,583.417812 264.05921,581.230196 259.15547,578.070306 C256.432425,576.225196 253.268722,574.004434 249.460979,571.275438 C248.477971,570.612524 247.494964,569.905416 246.489358,569.187259 C245.754927,568.656928 244.997898,568.115548 244.22957,567.585217 C243.382149,566.9444 242.534729,566.281487 241.687308,565.607524 C240.828589,564.933562 239.981168,564.259599 239.133748,563.618782 C235.721468,560.933981 232.320487,558.238131 229.055093,555.685912 C225.913988,552.990062 222.897171,550.426795 220.140229,548.117645 C216.886135,545.465989 214.174389,543.024256 211.993694,541.06866 C210.988088,540.162678 210.11807,539.37823 209.394937,538.75951 L209.745205,538.483296 C209.666112,538.37281 209.553123,538.262324 209.417535,538.151839 L202.095822,530.992368 C201.033722,529.876463 199.903828,528.683218 198.70614,527.423682 C196.344661,524.937754 193.734606,522.186662 190.955067,519.214598 L187.813962,515.756397 C187.339406,515.226065 186.853552,514.673637 186.367697,514.11016 C185.780152,513.436198 185.181309,512.740138 184.548568,512.044079 L184.345187,511.812059 C182.187089,509.326131 180.017693,506.840204 177.746606,504.243791 L171.057633,495.78059 C170.119821,494.664685 169.272401,493.537731 168.357187,492.355535 L167.67925,491.460601 C167.408076,491.062853 167.103004,490.69825 166.797933,490.333647 C166.515459,489.991142 166.232986,489.659685 165.97311,489.272985 L164.402558,487.096418 C163.351756,485.61591 162.267058,484.146451 161.193659,482.665943 C160.10896,481.196484 159.035561,479.727024 157.98476,478.246517 C156.323815,476.003658 154.549882,473.705556 152.662959,471.274872 C139.126828,453.773944 120.573969,429.809606 94.9931681,364.965575 C93.4678112,361.109625 92.0893405,357.176336 90.8803539,353.254095 C85.7732329,336.670198 79.8412893,314.816136 79.332837,292.862636 C79.3102391,292.332305 79.332837,291.581003 79.3441359,290.697117 C79.4345275,286.752779 79.5588158,280.797603 77.1182447,278.731521 C76.3838136,278.112801 75.4798984,277.880781 74.4403959,278.057558 C69.4462643,278.875152 68,280.477194 68,285.194932 C68,289.990009 68,294.939767 68.1355873,299.679601 C68.2598756,304.408387 69.2767802,318.473211 70.7230446,326.41713 L70.6100552,326.306644 L70.8925287,327.820297 C72.0789174,334.11798 73.2766051,338.81362 74.4403959,343.365629 C75.0279408,345.387517 76.0222475,349.232417 77.0843479,353.309338 C78.3385303,358.137561 79.6266094,363.131513 80.2141543,364.899283 C80.7791013,366.700199 81.4683367,368.512164 82.1914689,370.434615 C82.8242095,372.113997 83.479548,373.848621 84.1348866,375.760023 C84.4512569,376.997462 86.3381799,382.554891 87.9991241,387.460454 C89.1290181,390.786072 90.1911185,393.934913 90.5978804,395.205498 C91.0611369,396.100432 91.4791977,396.995366 91.9085574,397.8903 C92.3379171,398.785234 92.7559779,399.680167 93.2079355,400.553004 C93.9084698,402.232386 94.7332925,404.176934 95.6598056,406.375598 C96.6541123,408.717894 97.7614084,411.347453 98.981694,414.275322 C99.3884558,415.148159 99.738723,416.020996 100.111588,416.926978 C100.337567,417.479406 100.563546,418.042883 100.812122,418.617409 C101.47876,420.186305 102.280984,421.744153 103.049312,423.246758 C103.795042,424.760411 104.529474,426.296162 105.286503,427.865058 C106.133923,429.62178 106.992643,431.411648 107.885259,433.223612 C108.732679,435.16816 109.670491,436.958027 110.653499,438.504827 C111.015065,439.222983 111.399229,439.930092 111.794692,440.648248 C112.382237,441.731008 112.981081,442.846913 113.546028,444.029109 C114.16747,445.10082 114.732417,446.194628 115.342559,447.354728 C115.738022,448.117079 116.133485,448.890478 116.562845,449.663878 C116.822721,450.10582 117.082596,450.591957 117.342472,451.067046 C117.602347,451.553182 117.873522,452.028271 118.133398,452.481262 C118.393273,452.934253 118.698345,453.409341 118.992117,453.895478 C119.285889,454.370567 119.579662,454.845655 119.839538,455.287598 C122.076728,459.154596 124.472103,463.054739 126.788386,466.833349 C127.952177,468.722653 129.149864,470.689298 130.47184,472.622797 C131.127179,473.584022 131.74862,474.534199 132.370062,475.495424 C132.991504,476.456649 133.624245,477.417874 134.279583,478.390148 C134.934922,479.351373 135.556363,480.30155 136.177805,481.262775 C136.799247,482.224 137.431987,483.196274 138.087326,484.157499 C138.742664,485.118724 139.398003,486.046804 140.053342,486.985932 C140.70868,487.914011 141.364019,488.842091 142.019357,489.803316 C143.228344,491.526892 144.471227,493.217323 145.702812,494.896705 C147.10388,496.797058 148.538846,498.763703 149.872121,500.697202 L149.962512,500.807687 C152.640361,504.1775 155.4199,507.668847 158.007357,510.839785 C159.295437,512.486021 160.628712,514.176452 161.950688,515.723251 C163.238767,517.225856 164.560743,518.794752 165.894018,520.220017 C167.408076,521.921496 168.843041,523.589829 170.232811,525.213969 C171.249715,526.385117 172.232723,527.545216 173.215731,528.67217 C173.791977,529.368229 174.368223,529.997997 174.93317,530.605669 C175.520715,531.235437 176.085662,531.854156 176.650609,532.550216 C177.836997,533.710315 178.887799,534.870415 179.916002,535.997369 C183.814137,540.173726 187.000438,543.510393 189.553998,545.963175 L189.508803,546.018417 C190.559604,546.979643 191.599107,547.996111 192.683805,549.056773 C193.768503,550.117435 194.887098,551.211243 196.050889,552.294003 L201.463081,557.586266 C202.095822,558.083451 202.751161,558.724268 203.406499,559.365085 C206.027853,561.674235 208.773496,564.104919 211.654725,566.668186 L215.993518,570.524136 C216.784444,571.164953 217.530174,571.772624 218.287203,572.380295 C219.044232,572.987966 219.789962,573.595637 220.580888,574.236454 C223.676798,576.755527 226.874398,579.362988 230.15109,581.926255 C233.009722,584.169114 235.936148,586.27939 239.032057,588.5112 L240.376631,589.483474 C242.048874,590.743011 243.777612,592.046741 245.61934,593.328375 C246.704038,594.145969 247.800035,594.886223 248.975125,595.670671 C249.653061,596.123662 250.330998,596.576653 251.020233,597.06279 L251.178418,597.162227 C254.737584,599.515572 258.40974,601.957305 261.912411,604.365892 C265.900937,606.873916 269.697381,609.160969 273.177455,611.16076 C274.883595,612.23247 276.838311,613.39257 278.849523,614.508475 C279.83253,615.016709 280.781641,615.535992 281.730752,616.044226 C282.679863,616.55246 283.640273,617.071742 284.611982,617.579976 L284.758868,617.657316 C288.442323,619.646058 292.261365,621.701091 295.910922,623.745076 C299.650872,625.512846 303.323027,627.313762 306.882193,629.048387 L307.040378,629.125727 C308.848209,630.009612 310.712534,630.915595 312.407375,631.688994 C313.503372,632.219325 314.58807,632.661268 315.638872,633.092162 C316.373303,633.390473 317.096435,633.688785 317.796969,633.998145 C321.401331,635.567041 324.836209,636.981257 328.146799,638.351279 C330.915039,639.544524 333.694578,640.549944 336.372427,641.533266 L337.863887,642.074646 C340.903302,643.190551 343.69414,644.184922 346.47368,645.168244 L346.722256,645.256633 C347.524481,645.643333 348.462293,646.041081 349.366208,646.416732 C349.840764,646.615606 350.337917,646.781335 350.846369,646.947063 C351.320925,647.101743 351.806779,647.256423 352.292634,647.455297 C354.224753,648.085066 356.315056,648.847417 358.337567,649.58767 L358.461855,649.631865 C359.501358,649.952273 360.552159,650.305827 361.591662,650.648333 C362.642463,651.001887 363.693264,651.355441 364.721468,651.664801 C365.252518,651.863675 365.749672,652.018355 366.246825,652.184083 C366.732679,652.338763 367.218534,652.504492 367.79478,652.703366 C368.212841,652.802803 368.597004,652.913289 368.981168,653.023774 L369.105457,652.681269 C369.580012,652.769657 370.314443,652.935386 371.320049,653.222648 L375.907419,654.471136 C383.104844,656.437781 383.104844,656.437781 383.511606,656.437781 C383.78278,656.437781 384.562407,656.60351 390.663835,657.896192 L395.850048,658.99 C396.607077,659.155728 397.409302,659.332505 398.256722,659.509282 C399.341421,659.741302 400.493913,659.984371 401.736796,660.271633 C404.437243,660.890353 406.855216,661.354393 409.092406,661.68585 C410.2223,661.895772 411.386091,662.083598 412.57248,662.282472 C414.267321,662.558686 416.018656,662.845949 417.882982,663.2216 C419.453534,663.475717 421.035386,663.729834 422.741526,663.995 C423.306473,664.083388 423.848822,664.182825 424.40247,664.271214 C425.498467,664.470088 426.63966,664.680011 427.871245,664.757351 C429.328808,664.923079 430.842866,665.110905 432.368223,665.298731 C434.413331,665.552848 436.514934,665.818013 438.593939,666.038984 C442.288692,666.558267 446.220723,667.066501 450.164054,667.199084 C452.423842,667.342715 454.706228,667.530541 457.011211,667.707318 C462.660681,668.14926 468.502234,668.6133 474.287291,668.6133 L486.490146,669 C488.557852,669 490.591662,668.966854 492.591574,668.933709 C494.523693,668.900563 496.421915,668.867417 498.297539,668.867417 C506.737847,668.591203 513.709293,668.348135 520.296575,667.961435 C521.482964,667.873046 522.669353,667.784658 523.833144,667.740464 L528.895069,667.409007 C532.08137,667.143841 535.425856,666.84553 538.295787,666.558267 C543.685381,666.016887 548.046772,665.497605 550.792415,665.144051 C554.487168,664.436942 558.464395,663.729834 562.554612,663.000629 C572.181309,661.288101 582.135675,659.509282 590.621179,657.376909 L590.643777,657.454249 L591.197425,657.321666 C598.304458,655.653333 619.941929,650.582041 641.13874,643.212648 C650.290882,640.19639 660.572918,636.307295 671.713673,631.666897 L674.899974,630.296875 C678.007182,628.959999 680.944907,627.700462 683.521065,626.529314 C686.752562,625.015661 689.351318,623.745076 691.260839,622.805948 L691.170448,622.618122 C693.238154,621.568508 694.910397,620.717769 696.254971,620.110098 C697.588246,619.414038 698.684243,618.93895 699.655952,618.530153 L700.412981,618.209744 C701.011824,617.944579 701.610668,617.70151 702.243409,617.436345 C704.119033,616.662945 706.254533,615.77906 709.870194,613.967095 L711.531138,613.127404 L710.480336,613.094259 C711.124376,612.586025 712.333363,611.768431 714.107296,610.751963 L715.76824,609.713398 C717.869843,608.398618 720.03924,607.039645 721.609792,606.166808 L721.609792,606.443022 L722.355522,606.012128 C724.818691,604.586863 728.660331,602.111984 732.72795,599.493474 L734.953841,598.057161 C737.439608,596.388828 740.072261,594.59896 742.671017,592.809092 C744.648331,591.560604 746.501358,590.256874 748.297889,588.997337 L749.009722,588.500152 L748.874135,589.152017 L749.89104,588.43386 C752.4446,586.621896 755.676097,584.257503 759.110975,581.749478 C760.783218,580.523087 762.500657,579.2746 764.1729,578.059257 C765.969432,576.832867 767.630376,575.551233 769.223526,574.324842 C769.957957,573.750317 770.68109,573.197889 771.392923,572.667557 C773.618814,570.999224 775.460541,569.585008 776.771218,568.56854 L777.279671,568.18184 C783.290707,563.585637 790.759306,557.86248 798.408689,551.255437 C805.188053,545.510183 812.091705,539.079918 818.44171,532.59441 C818.340019,533.688218 818.249628,534.527909 818.170535,535.069289 L818.159236,535.179775 L818.193133,535.279212 C818.532101,536.339874 818.498204,537.566265 818.453009,538.748461 C818.453009,538.91419 818.44171,539.079918 818.44171,539.245647 L818.283525,538.936287 L818.430411,541.30068 C818.486905,542.173517 818.317421,544.979852 818.125339,547.951916 C817.876763,551.940449 817.616887,556.061563 817.775072,557.464731 L817.91066,558.724268 C817.865464,558.845802 817.808969,558.956288 817.741175,559.08887 C817.571691,559.420327 817.36831,559.829124 817.255321,560.547281 L817.142332,561.199146 L817.808969,561.088661 C818.001051,561.154952 818.272226,561.828915 818.373916,562.436586 L818.22703,562.436586 L818.294824,562.977965 C818.340019,563.353617 818.44171,563.894996 818.554699,564.535813 C818.712884,565.40865 818.893667,566.447215 819.006657,567.353197 L818.464308,567.17642 L818.701585,568.038208 C818.984059,569.032579 818.904966,570.833496 818.848472,572.026741 C818.825874,572.435538 818.814575,572.778043 818.814575,572.976917 C818.746781,573.540394 818.645091,574.170162 818.5434,574.855173 C818.204432,576.965449 817.786371,579.572911 818.136638,582.014644 L816.769467,584.014434 L817.131033,584.721542 L817.345713,584.776785 C817.944556,584.920417 831.367697,588.212889 835.548305,584.865174 C835.548305,585.041951 835.559604,585.218728 835.582202,585.406553 L835.717789,586.35673 L836.418324,585.682768 C836.723395,585.384456 836.88158,585.041951 836.983271,584.6663 L837.209249,584.997757 L837.209249,583.484103 L837.288342,583.406763 L837.220548,583.296277 C837.243146,583.020063 837.344837,582.732801 837.446527,582.423441 L837.514321,582.235615 L837.19795,581.683187 L836.971972,581.694235 C836.870281,581.362778 836.813786,581.031322 836.915477,580.777205 L836.949374,580.65567 C836.960673,580.600427 836.960673,580.567282 836.971972,580.534136 C837.435228,580.456796 837.661207,580.147436 837.7403,579.484522 C837.887186,577.716752 838.067969,575.948981 838.237453,574.192259 C838.610318,570.446796 838.983183,566.590846 839.130069,562.668606 L839.604625,563.585637 L839.44644,561.210195 C839.378646,560.271067 839.378646,559.376133 839.378646,558.525394 C839.378646,557.696751 839.378646,556.901254 839.322151,556.094709 C839.412543,555.951078 839.491635,555.851641 839.559429,555.785349 L839.582027,555.796398 L839.819305,555.564378 L839.469037,555.221873 C839.469037,555.221873 839.469037,555.210824 839.457738,555.210824 L839.887098,555.034047 C839.808006,554.768881 839.706315,552.835382 839.819305,550.614621 C839.819305,550.00695 839.853201,549.366133 839.887098,548.76951 C839.920995,548.228131 839.943593,547.708848 839.943593,547.23376 C839.819305,545.99632 839.819305,545.366552 839.819305,545.355504 L839.819305,544.946707 L839.050977,544.825172 C839.084873,544.571055 839.152667,544.493715 839.197863,544.471618 C839.717614,544.239598 839.875799,543.863947 839.808006,543.013208 L839.796707,542.792236 L839.615924,542.659654 C839.299553,542.427634 839.367347,541.875205 839.502934,541.123903 C839.593326,540.571475 839.695016,539.996949 839.502934,539.555007 C839.514233,539.532909 839.514233,539.499764 839.525532,539.477667 C839.536831,539.422424 839.559429,539.345084 839.582027,539.289841 L841.977402,539.30089 L839.64982,538.383859 L839.830603,536.317777 C839.97749,534.638395 840.350355,530.163726 840.61023,525.66696 C840.678024,525.081386 840.711921,524.484763 840.745818,523.899189 C840.779714,523.335712 840.813611,522.772236 840.870106,522.186662 C840.9379,521.291728 840.971796,520.440988 841.005693,519.601297 C841.03959,518.750558 841.073487,517.910867 841.141281,517.049079 L841.231672,514.441617 C841.322064,511.734719 841.401156,509.602346 841.401156,508.320712 L841.401156,506.287776 L840.881405,507.304244 C840.904003,507.094321 840.926601,506.87335 840.949199,506.663427 C841.028291,505.680105 841.152579,504.497908 841.694929,503.492489 Z M415.532802,643.168454 C415.589297,643.179502 415.634492,643.190551 415.690987,643.212648 C415.65709,643.212648 415.634492,643.212648 415.600596,643.212648 C415.577998,643.190551 415.5554,643.179502 415.532802,643.168454 Z M763.540159,519.678637 C763.52886,519.722832 763.517562,519.755977 763.494964,519.789123 L763.551458,519.645492 C763.540159,519.65654 763.540159,519.667589 763.540159,519.678637 Z" id="Shape" fill-rule="nonzero"></path>
        </g>
    </g>
</svg>